  0
SECTION
  2
HEADER
  9
$ACADVER
  1
AC1009
  9
$INSBASE
 10
0.0
 20
0.0
 30
0.0
  9
$EXTMIN
 10
0.0
 20
0.0
 30
0.0
  9
$EXTMAX
 10
594.0
 20
420.0
 30
0.0
  9
$LIMMIN
 10
0.0
 20
0.0
  9
$LIMMAX
 10
594.0
 20
420.0
  9
$ORTHOMODE
 70
     0
  9
$REGENMODE
 70
     1
  9
$FILLMODE
 70
     1
  9
$QTEXTMODE
 70
     0
  9
$MIRRTEXT
 70
     0
  9
$DRAGMODE
 70
     2
  9
$LTSCALE
 40
1.0
  9
$OSMODE
 70
     0
  9
$ATTMODE
 70
     1
  9
$TEXTSIZE
 40
0.2
  9
$TRACEWID
 40
0.05
  9
$TEXTSTYLE
  7
STANDARD
  9
$CLAYER
  8
0
  9
$CELTYPE
  6
BYLAYER
  9
$CECOLOR
 62
   256
  9
$DIMSCALE
 40
1.0
  9
$DIMASZ
 40
0.18
  9
$DIMEXO
 40
0.0625
  9
$DIMDLI
 40
0.38
  9
$DIMRND
 40
0.0
  9
$DIMDLE
 40
0.0
  9
$DIMEXE
 40
0.18
  9
$DIMTP
 40
0.0
  9
$DIMTM
 40
0.0
  9
$DIMTXT
 40
0.18
  9
$DIMCEN
 40
0.09
  9
$DIMTSZ
 40
0.0
  9
$DIMTOL
 70
     0
  9
$DIMLIM
 70
     0
  9
$DIMTIH
 70
     1
  9
$DIMTOH
 70
     1
  9
$DIMSE1
 70
     0
  9
$DIMSE2
 70
     0
  9
$DIMTAD
 70
     0
  9
$DIMZIN
 70
     0
  9
$DIMBLK
  1

  9
$DIMASO
 70
     1
  9
$DIMSHO
 70
     1
  9
$DIMPOST
  1

  9
$DIMAPOST
  1

  9
$DIMALT
 70
     0
  9
$DIMALTD
 70
     2
  9
$DIMALTF
 40
25.3999999999999986
  9
$DIMLFAC
 40
1.0
  9
$DIMTOFL
 70
     0
  9
$DIMTVP
 40
0.0
  9
$DIMTIX
 70
     0
  9
$DIMSOXD
 70
     0
  9
$DIMSAH
 70
     0
  9
$DIMBLK1
  1

  9
$DIMBLK2
  1

  9
$DIMSTYLE
  2
STANDARD
  9
$DIMCLRD
 70
     0
  9
$DIMCLRE
 70
     0
  9
$DIMCLRT
 70
     0
  9
$DIMTFAC
 40
1.0
  9
$DIMGAP
 40
0.09
  9
$LUNITS
 70
     2
  9
$LUPREC
 70
     4
  9
$SKETCHINC
 40
0.1
  9
$FILLETRAD
 40
0.0
  9
$AUNITS
 70
     0
  9
$AUPREC
 70
     0
  9
$MENU
  1
.
  9
$ELEVATION
 40
0.0
  9
$PELEVATION
 40
0.0
  9
$THICKNESS
 40
0.0
  9
$LIMCHECK
 70
     0
  9
$BLIPMODE
 70
     0
  9
$CHAMFERA
 40
0.0
  9
$CHAMFERB
 40
0.0
  9
$SKPOLY
 70
     0
  9
$TDCREATE
 40
2459596.9518402782268822
  9
$TDUPDATE
 40
2459596.9518402782268822
  9
$TDINDWG
 40
0.0000347222
  9
$TDUSRTIMER
 40
0.0000347222
  9
$USRTIMER
 70
     1
  9
$ANGBASE
 50
0.0
  9
$ANGDIR
 70
     0
  9
$PDMODE
 70
     0
  9
$PDSIZE
 40
0.0
  9
$PLINEWID
 40
0.0
  9
$COORDS
 70
     0
  9
$SPLFRAME
 70
     0
  9
$SPLINETYPE
 70
     6
  9
$SPLINESEGS
 70
     8
  9
$ATTDIA
 70
     1
  9
$ATTREQ
 70
     1
  9
$HANDLING
 70
     1
  9
$HANDSEED
  5
1A9
  9
$SURFTAB1
 70
     6
  9
$SURFTAB2
 70
     6
  9
$SURFTYPE
 70
     6
  9
$SURFU
 70
     6
  9
$SURFV
 70
     6
  9
$UCSNAME
  2

  9
$UCSORG
 10
0.0
 20
0.0
 30
0.0
  9
$UCSXDIR
 10
1.0
 20
0.0
 30
0.0
  9
$UCSYDIR
 10
0.0
 20
1.0
 30
0.0
  9
$PUCSNAME
  2

  9
$PUCSORG
 10
0.0
 20
0.0
 30
0.0
  9
$PUCSXDIR
 10
1.0
 20
0.0
 30
0.0
  9
$PUCSYDIR
 10
0.0
 20
1.0
 30
0.0
  9
$USERI1
 70
     0
  9
$USERI2
 70
     0
  9
$USERI3
 70
     0
  9
$USERI4
 70
     0
  9
$USERI5
 70
     0
  9
$USERR1
 40
0.0
  9
$USERR2
 40
0.0
  9
$USERR3
 40
0.0
  9
$USERR4
 40
0.0
  9
$USERR5
 40
0.0
  9
$WORLDVIEW
 70
     1
  9
$SHADEDGE
 70
     3
  9
$SHADEDIF
 70
    70
  9
$TILEMODE
 70
     1
  9
$MAXACTVP
 70
    64
  9
$PLIMCHECK
 70
     0
  9
$PEXTMIN
 10
0.0
 20
0.0
 30
0.0
  9
$PEXTMAX
 10
594.0
 20
420.0
 30
0.0
  9
$PLIMMIN
 10
0.0
 20
0.0
  9
$PLIMMAX
 10
594.0
 20
420.0
  9
$UNITMODE
 70
     0
  9
$VISRETAIN
 70
     1
  9
$PLINEGEN
 70
     0
  9
$PSLTSCALE
 70
     1
  0
ENDSEC
  0
SECTION
  2
TABLES
  0
TABLE
  2
VPORT
 70
     1
  0
VPORT
  2
*ACTIVE
 70
     0
 10
0.0
 20
0.0
 11
1.0
 21
1.0
 12
297.0
 22
210.0
 13
0.0
 23
0.0
 14
1.0
 24
1.0
 15
0.0
 25
0.0
 16
0.0
 26
0.0
 36
1.0
 17
0.0
 27
0.0
 37
0.0
 40
420.0
 41
1.4142857142857139
 42
50.0
 43
0.0
 44
0.0
 50
0.0
 51
0.0
 71
     0
 72
   100
 73
     1
 74
     0
 75
     1
 76
     0
 77
     0
 78
     0
  0
ENDTAB
  0
TABLE
  2
LTYPE
 70
    59
  0
LTYPE
  2
CONTINUOUS
 70
     0
  3
Solid line
 72
    65
 73
     0
 40
0.0
  0
LTYPE
  2
SECTION_VIEW_LINES
 70
     0
  3
Section View Lines
 72
    65
 73
     4
 40
0.8406
 49
0.6614
 49
-0.0827
 49
0.0138
 49
-0.0827
  0
LTYPE
  2
CHAIN
 70
     0
  3
Chain ____ _ ____ _ ____ _ ____ _ ____ _ ____
 72
    65
 73
     4
 40
0.3543
 49
0.2362
 49
-0.0295
 49
0.0591
 49
-0.0295
  0
LTYPE
  2
DASH_DOT
 70
     0
  3
Dash dot _._._._._._._._._._._._._._._.
 72
    65
 73
     4
 40
0.37
 49
0.24
 49
-0.06
 49
0.01
 49
-0.06
  0
LTYPE
  2
DASH_DOUBLE_DOT
 70
     0
  3
Dash Double Dot __ __ . __ __ . __ __ . __ _
 72
    65
 73
     6
 40
0.4398
 49
0.24
 49
-0.06
 49
0.0098
 49
-0.06
 49
0.01
 49
-0.06
  0
LTYPE
  2
DASH_TRIPLE_DOT
 70
     0
  3
Dash Triple-Dot _ . . . _ . . . _ . . . _
 72
    65
 73
     8
 40
0.51
 49
0.24
 49
-0.06
 49
0.01
 49
-0.06
 49
0.01
 49
-0.06
 49
0.01
 49
-0.06
  0
LTYPE
  2
DASHED
 70
     0
  3
Dashed __ __ __ __ __ __ __ __ __ __ __ __ __ _
 72
    65
 73
     2
 40
0.2067
 49
0.1654
 49
-0.0413
  0
LTYPE
  2
DASHED_SPACE
 70
     0
  3
Dashed Space _._._._._._._._._._._._._._._.
 72
    65
 73
     2
 40
0.2067
 49
0.1654
 49
-0.0413
  0
LTYPE
  2
DOTTED
 70
     0
  3
Dotted . . . . . . . . . . . . . . . . . . . . 
 72
    65
 73
     2
 40
0.0482
 49
0.0069
 49
-0.0413
  0
LTYPE
  2
DOUBLE_DASH_CHAIN
 70
     0
  3
Double Dash Chain ___ _ _ ___ _ _ ___ _ _ ___ _
 72
    65
 73
     6
 40
1.2402999999999991
 49
0.6614
 49
-0.0827
 49
0.1654
 49
-0.0827
 49
0.1654
 49
-0.0827
  0
LTYPE
  2
DOUBLE_DASH_DOT
 70
     0
  3
Double Dash Dot __ __ . __ __ . __ __ . __ _
 72
    65
 73
     6
 40
0.67
 49
0.24
 49
-0.06
 49
0.24
 49
-0.06
 49
0.01
 49
-0.06
  0
LTYPE
  2
DOUBLE_DASH_DOUBLE_DOT
 70
     0
  3
Double-dash double-dot _ _ . . _ _ . . _
 72
    65
 73
     8
 40
0.7400000000000001
 49
0.24
 49
-0.06
 49
0.24
 49
-0.06
 49
0.01
 49
-0.06
 49
0.01
 49
-0.06
  0
LTYPE
  2
DOUBLE_DASH_TRIPLE_DOT
 70
     0
  3
Double Dash Triple Dot __ __ . . . __ __ . . .
 72
    65
 73
    10
 40
0.8100000000000001
 49
0.24
 49
-0.06
 49
0.24
 49
-0.06
 49
0.01
 49
-0.06
 49
0.01
 49
-0.06
 49
0.01
 49
-0.06
  0
LTYPE
  2
LONG_DASH_DOTTED
 70
     0
  3
Long-Dash Dot ____ . ____ . ____ . ____ . _
 72
    65
 73
     4
 40
0.3001
 49
0.2362
 49
-0.0295
 49
0.0049
 49
-0.0295
  0
LTYPE
  2
LONG_DASH_DOUBLE_DOT
 70
     0
  3
Long Dash Double Dot ____ . . ____ . . ____ . .
 72
    65
 73
     6
 40
0.3345
 49
0.2362
 49
-0.0295
 49
0.0049
 49
-0.0295
 49
0.0049
 49
-0.0295
  0
LTYPE
  2
LONG_DASH_TRIPLE_DOT
 70
     0
  3
Long Dash Triple Dot ____ ... ____ ... ____
 72
    65
 73
     8
 40
0.75
 49
0.48
 49
-0.06
 49
0.01
 49
-0.06
 49
0.01
 49
-0.06
 49
0.01
 49
-0.06
  0
LTYPE
  2
BORDER
 70
     0
  3
Border __ __ . __ __ . __ __ . __ __ . __ __ .
 72
    65
 73
     6
 40
44.4500000000000028
 49
12.6999999999999993
 49
-6.3499999999999988
 49
12.6999999999999993
 49
-6.3499999999999988
 49
0.0
 49
-6.3499999999999988
  0
LTYPE
  2
BORDER2
 70
     0
  3
Border (.5x) __.__.__.__.__.__.__.__.__.__.__.
 72
    65
 73
     6
 40
22.2250000000000014
 49
6.3499999999999988
 49
-3.1749999999999989
 49
6.3499999999999988
 49
-3.1749999999999989
 49
0.0
 49
-3.1749999999999989
  0
LTYPE
  2
BORDERX2
 70
     0
  3
Border (2x) ____  ____  .  ____  ____  .  ___
 72
    65
 73
     6
 40
88.9000000000000057
 49
25.3999999999999986
 49
-12.6999999999999993
 49
25.3999999999999986
 49
-12.6999999999999993
 49
0.0
 49
-12.6999999999999993
  0
LTYPE
  2
CENTER
 70
     0
  3
Center ____ _ ____ _ ____ _ ____ _ ____ _ ____
 72
    65
 73
     4
 40
50.7999999999999972
 49
31.75
 49
-6.3499999999999988
 49
6.3499999999999988
 49
-6.3499999999999988
  0
LTYPE
  2
CENTER2
 70
     0
  3
Center (.5x) ___ _ ___ _ ___ _ ___ _ ___ _ ___
 72
    65
 73
     4
 40
28.5749999999999993
 49
19.0500000000000007
 49
-3.1749999999999989
 49
3.1749999999999989
 49
-3.1749999999999989
  0
LTYPE
  2
CENTERX2
 70
     0
  3
Center (2x) ________  __  ________  __  _____
 72
    65
 73
     4
 40
101.5999999999999943
 49
63.5
 49
-12.6999999999999993
 49
12.6999999999999993
 49
-12.6999999999999993
  0
LTYPE
  2
DASHDOT2
 70
     0
  3
Dash dot (.5x) _._._._._._._._._._._._._._._.
 72
    65
 73
     4
 40
12.6999999999999993
 49
6.3499999999999988
 49
-3.1749999999999989
 49
0.0
 49
-3.1749999999999989
  0
LTYPE
  2
DASHDOTX2
 70
     0
  3
Dash dot (2x) ____  .  ____  .  ____  .  ___
 72
    65
 73
     4
 40
50.7999999999999972
 49
25.3999999999999986
 49
-12.6999999999999993
 49
0.0
 49
-12.6999999999999993
  0
LTYPE
  2
DASHED2
 70
     0
  3
Dashed (.5x) _ _ _ _ _ _ _ _ _ _ _ _ _ _ _ _ _
 72
    65
 73
     2
 40
9.5249999999999986
 49
6.3499999999999988
 49
-3.1749999999999989
  0
LTYPE
  2
DASHEDX2
 70
     0
  3
Dashed (2x) ____  ____  ____  ____  ____  ___
 72
    65
 73
     2
 40
38.1000000000000014
 49
25.3999999999999986
 49
-12.6999999999999993
  0
LTYPE
  2
DIVIDE
 70
     0
  3
Divide ____ . . ____ . . ____ . . ____ . . ____
 72
    65
 73
     6
 40
31.75
 49
12.6999999999999993
 49
-6.3499999999999988
 49
0.0
 49
-6.3499999999999988
 49
0.0
 49
-6.3499999999999988
  0
LTYPE
  2
DIVIDE2
 70
     0
  3
Divide (.5x) __..__..__..__..__..__..__..__.._
 72
    65
 73
     6
 40
15.875
 49
6.3499999999999988
 49
-3.1749999999999989
 49
0.0
 49
-3.1749999999999989
 49
0.0
 49
-3.1749999999999989
  0
LTYPE
  2
DIVIDEX2
 70
     0
  3
Divide (2x) ________  .  .  ________  .  .  _
 72
    65
 73
     6
 40
63.4999999999999929
 49
25.3999999999999986
 49
-12.6999999999999993
 49
0.0
 49
-12.6999999999999993
 49
0.0
 49
-12.6999999999999993
  0
LTYPE
  2
DOT
 70
     0
  3
Dot . . . . . . . . . . . . . . . . . . . . . .
 72
    65
 73
     2
 40
6.3499999999999988
 49
0.0
 49
-6.3499999999999988
  0
LTYPE
  2
DOT2
 70
     0
  3
Dot (.5x) .....................................
 72
    65
 73
     2
 40
3.1749999999999989
 49
0.0
 49
-3.1749999999999989
  0
LTYPE
  2
DOTX2
 70
     0
  3
Dot (2x) .  .  .  .  .  .  .  .  .  .  .  .  . 
 72
    65
 73
     2
 40
12.6999999999999993
 49
0.0
 49
-12.6999999999999993
  0
LTYPE
  2
HIDDEN
 70
     0
  3
Hidden __ __ __ __ __ __ __ __ __ __ __ __ __ _
 72
    65
 73
     2
 40
9.5249999999999986
 49
6.3499999999999988
 49
-3.1749999999999989
  0
LTYPE
  2
HIDDEN2
 70
     0
  3
Hidden (.5x) _ _ _ _ _ _ _ _ _ _ _ _ _ _ _ _ _
 72
    65
 73
     2
 40
4.7624999999999993
 49
3.1749999999999989
 49
-1.587499999999999
  0
LTYPE
  2
HIDDENX2
 70
     0
  3
Hidden (2x) ____ ____ ____ ____ ____ ____ ____
 72
    65
 73
     2
 40
19.0500000000000007
 49
12.6999999999999993
 49
-6.3499999999999988
  0
LTYPE
  2
PHANTOM
 70
     0
  3
Phantom ______  __  __  ______  __  __  ______
 72
    65
 73
     6
 40
63.5
 49
31.75
 49
-6.3499999999999988
 49
6.3499999999999988
 49
-6.3499999999999988
 49
6.3499999999999988
 49
-6.3499999999999988
  0
LTYPE
  2
PHANTOM2
 70
     0
  3
Phantom (.5x) ___ _ _ ___ _ _ ___ _ _ ___ _ _
 72
    65
 73
     6
 40
31.75
 49
15.875
 49
-3.1749999999999989
 49
3.1749999999999989
 49
-3.1749999999999989
 49
3.1749999999999989
 49
-3.1749999999999989
  0
LTYPE
  2
PHANTOMX2
 70
     0
  3
Phantom (2x) ____________    ____    ____   _
 72
    65
 73
     6
 40
127.0
 49
63.5
 49
-12.6999999999999993
 49
12.6999999999999993
 49
-12.6999999999999993
 49
12.6999999999999993
 49
-12.6999999999999993
  0
LTYPE
  2
ACAD_ISO02W100
 70
     0
  3
ISO dash __ __ __ __ __ __ __ __ __ __ __ __ __
 72
    65
 73
     2
 40
15.0
 49
12.0
 49
-3.0
  0
LTYPE
  2
ACAD_ISO03W100
 70
     0
  3
ISO dash space __    __    __    __    __    __
 72
    65
 73
     2
 40
30.0
 49
12.0
 49
-18.0
  0
LTYPE
  2
ACAD_ISO04W100
 70
     0
  3
ISO long-dash dot ____ . ____ . ____ . ____ . _
 72
    65
 73
     4
 40
30.0
 49
24.0
 49
-3.0
 49
0.0
 49
-3.0
  0
LTYPE
  2
ACAD_ISO05W100
 70
     0
  3
ISO long-dash double-dot ____ .. ____ .. ____ .
 72
    65
 73
     6
 40
33.0
 49
24.0
 49
-3.0
 49
0.0
 49
-3.0
 49
0.0
 49
-3.0
  0
LTYPE
  2
ACAD_ISO06W100
 70
     0
  3
ISO long-dash triple-dot ____ ... ____ ... ____
 72
    65
 73
     8
 40
36.0
 49
24.0
 49
-3.0
 49
0.0
 49
-3.0
 49
0.0
 49
-3.0
 49
0.0
 49
-3.0
  0
LTYPE
  2
ACAD_ISO07W100
 70
     0
  3
ISO dot . . . . . . . . . . . . . . . . . . . .
 72
    65
 73
     2
 40
3.0
 49
0.0
 49
-3.0
  0
LTYPE
  2
ACAD_ISO08W100
 70
     0
  3
ISO long-dash short-dash ____ __ ____ __ ____ _
 72
    65
 73
     4
 40
36.0
 49
24.0
 49
-3.0
 49
6.0
 49
-3.0
  0
LTYPE
  2
ACAD_ISO09W100
 70
     0
  3
ISO long-dash double-short-dash ____ __ __ ____
 72
    65
 73
     6
 40
45.0
 49
24.0
 49
-3.0
 49
6.0
 49
-3.0
 49
6.0
 49
-3.0
  0
LTYPE
  2
ACAD_ISO10W100
 70
     0
  3
ISO dash dot __ . __ . __ . __ . __ . __ . __ .
 72
    65
 73
     4
 40
18.0
 49
12.0
 49
-3.0
 49
0.0
 49
-3.0
  0
LTYPE
  2
ACAD_ISO11W100
 70
     0
  3
ISO double-dash dot __ __ . __ __ . __ __ . __ 
 72
    65
 73
     6
 40
33.0
 49
12.0
 49
-3.0
 49
12.0
 49
-3.0
 49
0.0
 49
-3.0
  0
LTYPE
  2
ACAD_ISO12W100
 70
     0
  3
ISO dash double-dot __ . . __ . . __ . . __ . .
 72
    65
 73
     6
 40
21.0
 49
12.0
 49
-3.0
 49
0.0
 49
-3.0
 49
0.0
 49
-3.0
  0
LTYPE
  2
ACAD_ISO13W100
 70
     0
  3
ISO double-dash double-dot __ __ . . __ __ . . 
 72
    65
 73
     8
 40
36.0
 49
12.0
 49
-3.0
 49
12.0
 49
-3.0
 49
0.0
 49
-3.0
 49
0.0
 49
-3.0
  0
LTYPE
  2
ACAD_ISO14W100
 70
     0
  3
ISO dash triple-dot __ . . . __ . . . __ . . . 
 72
    65
 73
     8
 40
24.0
 49
12.0
 49
-3.0
 49
0.0
 49
-3.0
 49
0.0
 49
-3.0
 49
0.0
 49
-3.0
  0
LTYPE
  2
ACAD_ISO15W100
 70
     0
  3
ISO double-dash triple-dot __ __ . . . __ __ . 
 72
    65
 73
    10
 40
39.0
 49
12.0
 49
-3.0
 49
12.0
 49
-3.0
 49
0.0
 49
-3.0
 49
0.0
 49
-3.0
 49
0.0
 49
-3.0
  0
LTYPE
  2
FENCELINE1
 70
     0
  3
Fenceline circle ----0-----0----0-----0----0---
 72
    65
 73
     4
 40
36.8299999999999983
 49
6.3499999999999988
 49
-2.54
 49
-2.54
 49
25.3999999999999986
  0
LTYPE
  2
FENCELINE2
 70
     0
  3
Fenceline square ----[]-----[]----[]-----[]----
 72
    65
 73
     4
 40
36.8299999999999983
 49
6.3499999999999988
 49
-2.54
 49
-2.54
 49
25.3999999999999986
  0
LTYPE
  2
TRACKS
 70
     0
  3
Tracks -|-|-|-|-|-|-|-|-|-|-|-|-|-|-|-|-|-|-|-|
 72
    65
 73
     2
 40
7.6200000000000001
 49
3.8100000000000001
 49
3.8100000000000001
  0
LTYPE
  2
BATTING
 70
     0
  3
Batting SSSSSSSSSSSSSSSSSSSSSSSSSSSSSSSSSSSSSSS
 72
    65
 73
     4
 40
10.1625399999999999
 49
0.00254
 49
-2.54
 49
-5.0800000000000001
 49
-2.54
  0
LTYPE
  2
HOT_WATER_SUPPLY
 70
     0
  3
Hot water supply ---- HW ---- HW ---- HW ----
 72
    65
 73
     3
 40
22.8599999999999994
 49
12.6999999999999993
 49
-5.0800000000000001
 49
-5.0800000000000001
  0
LTYPE
  2
GAS_LINE
 70
     0
  3
Gas line ----GAS----GAS----GAS----GAS----GAS---
 72
    65
 73
     3
 40
24.129999999999999
 49
12.6999999999999993
 49
-5.0800000000000001
 49
-6.3499999999999988
  0
LTYPE
  2
ZIGZAG
 70
     0
  3
Zig zag /\/\/\/\/\/\/\/\/\/\/\/\/\/\/\/\/\/\/\/
 72
    65
 73
     4
 40
20.32254
 49
0.00254
 49
-5.0800000000000001
 49
-10.1600000000000001
 49
-5.0800000000000001
  0
ENDTAB
  0
TABLE
  2
LAYER
 70
    29
  0
LAYER
  2
0
 70
     0
 62
     7
  6
CONTINUOUS
  0
LAYER
  2
SICHTBAR__ISO_
 70
     0
 62
     7
  6
CONTINUOUS
  0
ENDTAB
  0
TABLE
  2
STYLE
 70
     3
  0
STYLE
  2
STANDARD
 70
     0
 40
0.0
 41
1.0
 50
0.0
 71
     0
 42
0.2
  3
txt
  4

  0
STYLE
  2
ANNOTATIVE
 70
     0
 40
0.0
 41
1.0
 50
0.0
 71
     0
 42
0.2
  3
txt
  4

  0
STYLE
  2

 70
     1
 40
0.0
 41
1.0
 50
0.0
 71
     0
 42
0.2
  3
ltypeshp.shx
  4

  0
ENDTAB
  0
TABLE
  2
VIEW
 70
     0
  0
ENDTAB
  0
TABLE
  2
UCS
 70
     0
  0
ENDTAB
  0
TABLE
  2
APPID
 70
     3
  0
APPID
  2
ACAD
 70
     0
  0
APPID
  2
ACADANNOTATIVE
 70
     0
  0
APPID
  2
ACAD_MLEADERVER
 70
     0
  0
ENDTAB
  0
TABLE
  2
DIMSTYLE
 70
     2
  0
DIMSTYLE
  2
STANDARD
 70
     0
  3

  4

  5

  6

  7

 40
1.0
 41
0.18
 42
0.0625
 43
0.38
 44
0.18
 45
0.0
 46
0.0
 47
0.0
 48
0.0
140
0.18
141
0.09
142
0.0
143
25.3999999999999986
144
1.0
145
0.0
146
1.0
147
0.09
 71
     0
 72
     0
 73
     1
 74
     1
 75
     0
 76
     0
 77
     0
 78
     0
170
     0
171
     2
172
     0
173
     0
174
     0
175
     0
176
     0
177
     0
178
     0
  0
DIMSTYLE
  2
ANNOTATIVE
 70
     0
  3

  4

  5

  6

  7

 40
1.0
 41
0.18
 42
0.0625
 43
0.38
 44
0.18
 45
0.0
 46
0.0
 47
0.0
 48
0.0
140
0.18
141
0.09
142
0.0
143
25.3999999999999986
144
1.0
145
0.0
146
1.0
147
0.09
 71
     0
 72
     0
 73
     1
 74
     1
 75
     0
 76
     0
 77
     0
 78
     0
170
     0
171
     2
172
     0
173
     0
174
     0
175
     0
176
     0
177
     0
178
     0
  0
ENDTAB
  0
ENDSEC
  0
SECTION
  2
BLOCKS
  0
BLOCK
  8
0
  2
$MODEL_SPACE
 70
     0
 10
0.0
 20
0.0
 30
0.0
  3
$MODEL_SPACE
  1

  0
ENDBLK
  5
72
  8
0
  0
BLOCK
 67
     1
  8
0
  2
$PAPER_SPACE
 70
     0
 10
0.0
 20
0.0
 30
0.0
  3
$PAPER_SPACE
  1

  0
ENDBLK
  5
6E
 67
     1
  8
0
  0
ENDSEC
  0
SECTION
  2
ENTITIES
  0
ARC
  5
D0
  8
SICHTBAR__ISO_
 10
135.7276915310580137
 20
304.5284092206895821
 30
0.0
 40
0.9999999999999964
 50
180.0
 51
0.0
  0
LINE
  5
D2
  8
SICHTBAR__ISO_
 10
136.7276915310580137
 20
312.5284092206895821
 30
0.0
 11
136.7276915310580137
 21
304.5284092206895821
 31
0.0
  0
ARC
  5
D3
  8
SICHTBAR__ISO_
 10
135.7276915310580137
 20
312.5284092206895821
 30
0.0
 40
0.9999999999999964
 50
0.0
 51
180.0
  0
LINE
  5
D4
  8
SICHTBAR__ISO_
 10
134.7276915310580137
 20
304.5284092206895821
 30
0.0
 11
134.7276915310580137
 21
312.5284092206895821
 31
0.0
  0
ARC
  5
D5
  8
SICHTBAR__ISO_
 10
236.2276915310580137
 20
179.7284092206894002
 30
0.0
 40
3.0000000000000031
 50
180.0
 51
270.0
  0
ARC
  5
D6
  8
SICHTBAR__ISO_
 10
245.2276915310580137
 20
179.7284092206894002
 30
0.0
 40
3.0000000000000022
 50
270.0
 51
0.0
  0
ARC
  5
D7
  8
SICHTBAR__ISO_
 10
245.2276915310580137
 20
183.7284092206895139
 30
0.0
 40
3.0000000000000031
 50
0.0
 51
90.0
  0
ARC
  5
D8
  8
SICHTBAR__ISO_
 10
236.2276915310580137
 20
183.7284092206895139
 30
0.0
 40
2.9999999999999978
 50
90.0
 51
180.0
  0
LINE
  5
D9
  8
SICHTBAR__ISO_
 10
245.2276915310580137
 20
176.7284092206894002
 30
0.0
 11
236.2276915310580137
 21
176.7284092206895139
 31
0.0
  0
LINE
  5
DA
  8
SICHTBAR__ISO_
 10
248.2276915310580137
 20
183.7284092206895139
 30
0.0
 11
248.2276915310580137
 21
179.7284092206894002
 31
0.0
  0
LINE
  5
DB
  8
SICHTBAR__ISO_
 10
236.2276915310580137
 20
186.7284092206895139
 30
0.0
 11
245.2276915310580137
 21
186.7284092206895139
 31
0.0
  0
LINE
  5
DC
  8
SICHTBAR__ISO_
 10
233.2276915310580137
 20
179.7284092206894002
 30
0.0
 11
233.2276915310580137
 21
183.7284092206895139
 31
0.0
  0
LINE
  5
DD
  8
SICHTBAR__ISO_
 10
254.7276915310580137
 20
151.8284092206895082
 30
0.0
 11
264.7276915310579852
 21
151.8284092206895082
 31
0.0
  0
LINE
  5
DE
  8
SICHTBAR__ISO_
 10
331.7276915310579852
 20
151.8284092206895082
 30
0.0
 11
341.7276915310579852
 21
151.8284092206895082
 31
0.0
  0
LINE
  5
DF
  8
SICHTBAR__ISO_
 10
187.2276915310580137
 20
151.8284092206895082
 30
0.0
 11
197.2276915310580137
 21
151.8284092206895082
 31
0.0
  0
LINE
  5
E0
  8
SICHTBAR__ISO_
 10
341.7276915310579852
 20
148.3284092206895082
 30
0.0
 11
331.7276915310579852
 21
148.3284092206895082
 31
0.0
  0
LINE
  5
E1
  8
SICHTBAR__ISO_
 10
264.7276915310579852
 20
148.3284092206895082
 30
0.0
 11
254.7276915310580137
 21
148.3284092206895082
 31
0.0
  0
LINE
  5
E2
  8
SICHTBAR__ISO_
 10
197.2276915310580137
 20
148.3284092206895082
 30
0.0
 11
187.2276915310580137
 21
148.3284092206895082
 31
0.0
  0
LINE
  5
E3
  8
SICHTBAR__ISO_
 10
187.2276915310580137
 20
148.3284092206895082
 30
0.0
 11
187.2276915310580137
 21
151.8284092206895082
 31
0.0
  0
LINE
  5
E4
  8
SICHTBAR__ISO_
 10
197.2276915310580137
 20
151.8284092206895082
 30
0.0
 11
197.2276915310580137
 21
148.3284092206895082
 31
0.0
  0
LINE
  5
E5
  8
SICHTBAR__ISO_
 10
254.7276915310580137
 20
148.3284092206895082
 30
0.0
 11
254.7276915310580137
 21
151.8284092206895082
 31
0.0
  0
LINE
  5
E6
  8
SICHTBAR__ISO_
 10
264.7276915310579852
 20
151.8284092206895082
 30
0.0
 11
264.7276915310579852
 21
148.3284092206895082
 31
0.0
  0
LINE
  5
E7
  8
SICHTBAR__ISO_
 10
331.7276915310579852
 20
148.3284092206895082
 30
0.0
 11
331.7276915310579852
 21
151.8284092206895082
 31
0.0
  0
LINE
  5
E8
  8
SICHTBAR__ISO_
 10
341.7276915310579852
 20
151.8284092206895082
 30
0.0
 11
341.7276915310579852
 21
148.3284092206895082
 31
0.0
  0
LINE
  5
E9
  8
SICHTBAR__ISO_
 10
254.7276915310579
 20
194.0284092206894115
 30
0.0
 11
264.7276915310579284
 21
194.0284092206894115
 31
0.0
  0
LINE
  5
EA
  8
SICHTBAR__ISO_
 10
331.7276915310579852
 20
194.0284092206894115
 30
0.0
 11
341.7276915310579852
 21
194.0284092206894115
 31
0.0
  0
LINE
  5
EB
  8
SICHTBAR__ISO_
 10
182.2276915310579
 20
194.0284092206894115
 30
0.0
 11
192.2276915310579
 21
194.0284092206894115
 31
0.0
  0
LINE
  5
EC
  8
SICHTBAR__ISO_
 10
341.7276915310579852
 20
190.5284092206894968
 30
0.0
 11
331.7276915310579852
 21
190.5284092206894968
 31
0.0
  0
LINE
  5
ED
  8
SICHTBAR__ISO_
 10
264.7276915310579284
 20
190.5284092206894968
 30
0.0
 11
254.7276915310579
 21
190.5284092206894968
 31
0.0
  0
LINE
  5
EE
  8
SICHTBAR__ISO_
 10
192.2276915310579
 20
190.5284092206894968
 30
0.0
 11
182.2276915310579
 21
190.5284092206894968
 31
0.0
  0
LINE
  5
EF
  8
SICHTBAR__ISO_
 10
182.2276915310579
 20
190.5284092206894968
 30
0.0
 11
182.2276915310579
 21
194.0284092206894115
 31
0.0
  0
LINE
  5
F0
  8
SICHTBAR__ISO_
 10
192.2276915310579
 20
194.0284092206894115
 30
0.0
 11
192.2276915310579
 21
190.5284092206894968
 31
0.0
  0
LINE
  5
F1
  8
SICHTBAR__ISO_
 10
254.7276915310579
 20
190.5284092206894968
 30
0.0
 11
254.7276915310579
 21
194.0284092206894115
 31
0.0
  0
LINE
  5
F2
  8
SICHTBAR__ISO_
 10
264.7276915310579284
 20
194.0284092206894115
 30
0.0
 11
264.7276915310579284
 21
190.5284092206894968
 31
0.0
  0
LINE
  5
F3
  8
SICHTBAR__ISO_
 10
331.7276915310579852
 20
190.5284092206894968
 30
0.0
 11
331.7276915310579852
 21
194.0284092206894115
 31
0.0
  0
LINE
  5
F4
  8
SICHTBAR__ISO_
 10
341.7276915310579852
 20
194.0284092206894115
 30
0.0
 11
341.7276915310579852
 21
190.5284092206894968
 31
0.0
  0
LINE
  5
F5
  8
SICHTBAR__ISO_
 10
254.7276915310580137
 20
236.2284092206895139
 30
0.0
 11
264.7276915310579852
 21
236.2284092206895139
 31
0.0
  0
LINE
  5
F6
  8
SICHTBAR__ISO_
 10
331.7276915310579852
 20
236.2284092206895139
 30
0.0
 11
341.7276915310579852
 21
236.2284092206895139
 31
0.0
  0
LINE
  5
F7
  8
SICHTBAR__ISO_
 10
172.2276915310580137
 20
236.2284092206894002
 30
0.0
 11
182.2276915310580137
 21
236.2284092206894002
 31
0.0
  0
LINE
  5
F8
  8
SICHTBAR__ISO_
 10
341.7276915310579852
 20
232.7284092206895139
 30
0.0
 11
331.7276915310579852
 21
232.7284092206895139
 31
0.0
  0
LINE
  5
F9
  8
SICHTBAR__ISO_
 10
264.7276915310579852
 20
232.7284092206895139
 30
0.0
 11
254.7276915310580137
 21
232.7284092206895139
 31
0.0
  0
LINE
  5
FA
  8
SICHTBAR__ISO_
 10
182.2276915310580137
 20
232.7284092206895139
 30
0.0
 11
172.2276915310580137
 21
232.7284092206895139
 31
0.0
  0
LINE
  5
FB
  8
SICHTBAR__ISO_
 10
172.2276915310580137
 20
232.7284092206895139
 30
0.0
 11
172.2276915310580137
 21
236.2284092206894002
 31
0.0
  0
LINE
  5
FC
  8
SICHTBAR__ISO_
 10
182.2276915310580137
 20
236.2284092206894002
 30
0.0
 11
182.2276915310580137
 21
232.7284092206895139
 31
0.0
  0
LINE
  5
FD
  8
SICHTBAR__ISO_
 10
254.7276915310580137
 20
232.7284092206895139
 30
0.0
 11
254.7276915310580137
 21
236.2284092206895139
 31
0.0
  0
LINE
  5
FE
  8
SICHTBAR__ISO_
 10
264.7276915310579852
 20
236.2284092206895139
 30
0.0
 11
264.7276915310579852
 21
232.7284092206895139
 31
0.0
  0
LINE
  5
FF
  8
SICHTBAR__ISO_
 10
331.7276915310579852
 20
232.7284092206895139
 30
0.0
 11
331.7276915310579852
 21
236.2284092206895139
 31
0.0
  0
LINE
  5
100
  8
SICHTBAR__ISO_
 10
341.7276915310579852
 20
236.2284092206895139
 30
0.0
 11
341.7276915310579852
 21
232.7284092206895139
 31
0.0
  0
LINE
  5
101
  8
SICHTBAR__ISO_
 10
254.7276915310580137
 20
278.4284092206892751
 30
0.0
 11
264.7276915310579852
 21
278.4284092206892751
 31
0.0
  0
LINE
  5
102
  8
SICHTBAR__ISO_
 10
331.7276915310579852
 20
278.4284092206893888
 30
0.0
 11
341.7276915310579852
 21
278.4284092206893888
 31
0.0
  0
LINE
  5
103
  8
SICHTBAR__ISO_
 10
168.2276915310580137
 20
278.4284092206892751
 30
0.0
 11
178.2276915310580137
 21
278.4284092206892751
 31
0.0
  0
LINE
  5
104
  8
SICHTBAR__ISO_
 10
341.7276915310579852
 20
274.9284092206892751
 30
0.0
 11
331.7276915310579852
 21
274.9284092206892751
 31
0.0
  0
LINE
  5
105
  8
SICHTBAR__ISO_
 10
264.7276915310579852
 20
274.9284092206892751
 30
0.0
 11
254.7276915310580137
 21
274.9284092206892751
 31
0.0
  0
LINE
  5
106
  8
SICHTBAR__ISO_
 10
178.2276915310580137
 20
274.9284092206892751
 30
0.0
 11
168.2276915310580137
 21
274.9284092206892751
 31
0.0
  0
LINE
  5
107
  8
SICHTBAR__ISO_
 10
168.2276915310580137
 20
274.9284092206892751
 30
0.0
 11
168.2276915310580137
 21
278.4284092206892751
 31
0.0
  0
LINE
  5
108
  8
SICHTBAR__ISO_
 10
178.2276915310580137
 20
278.4284092206892751
 30
0.0
 11
178.2276915310580137
 21
274.9284092206892751
 31
0.0
  0
LINE
  5
109
  8
SICHTBAR__ISO_
 10
254.7276915310580137
 20
274.9284092206892751
 30
0.0
 11
254.7276915310580137
 21
278.4284092206892751
 31
0.0
  0
LINE
  5
10A
  8
SICHTBAR__ISO_
 10
264.7276915310579852
 20
278.4284092206892751
 30
0.0
 11
264.7276915310579852
 21
274.9284092206892751
 31
0.0
  0
LINE
  5
10B
  8
SICHTBAR__ISO_
 10
331.7276915310579852
 20
274.9284092206892751
 30
0.0
 11
331.7276915310579852
 21
278.4284092206893888
 31
0.0
  0
LINE
  5
10C
  8
SICHTBAR__ISO_
 10
341.7276915310579852
 20
278.4284092206893888
 30
0.0
 11
341.7276915310579852
 21
274.9284092206892751
 31
0.0
  0
LINE
  5
10D
  8
SICHTBAR__ISO_
 10
254.7276915310580137
 20
299.5284092206896958
 30
0.0
 11
264.7276915310579852
 21
299.5284092206896958
 31
0.0
  0
LINE
  5
10E
  8
SICHTBAR__ISO_
 10
321.7276915310580989
 20
299.5284092206896958
 30
0.0
 11
331.7276915310579852
 21
299.5284092206896958
 31
0.0
  0
LINE
  5
10F
  8
SICHTBAR__ISO_
 10
177.7276915310580137
 20
299.5284092206896958
 30
0.0
 11
187.7276915310580137
 21
299.5284092206896958
 31
0.0
  0
LINE
  5
110
  8
SICHTBAR__ISO_
 10
331.7276915310579852
 20
296.0284092206895821
 30
0.0
 11
321.7276915310580989
 21
296.0284092206895821
 31
0.0
  0
LINE
  5
111
  8
SICHTBAR__ISO_
 10
264.7276915310579852
 20
296.0284092206895821
 30
0.0
 11
254.7276915310580137
 21
296.0284092206895821
 31
0.0
  0
LINE
  5
112
  8
SICHTBAR__ISO_
 10
187.7276915310580137
 20
296.0284092206895821
 30
0.0
 11
177.7276915310580137
 21
296.0284092206895821
 31
0.0
  0
LINE
  5
113
  8
SICHTBAR__ISO_
 10
177.7276915310580137
 20
296.0284092206895821
 30
0.0
 11
177.7276915310580137
 21
299.5284092206896958
 31
0.0
  0
LINE
  5
114
  8
SICHTBAR__ISO_
 10
187.7276915310580137
 20
299.5284092206896958
 30
0.0
 11
187.7276915310580137
 21
296.0284092206895821
 31
0.0
  0
LINE
  5
115
  8
SICHTBAR__ISO_
 10
254.7276915310580137
 20
296.0284092206895821
 30
0.0
 11
254.7276915310580137
 21
299.5284092206896958
 31
0.0
  0
LINE
  5
116
  8
SICHTBAR__ISO_
 10
264.7276915310579852
 20
299.5284092206896958
 30
0.0
 11
264.7276915310579852
 21
296.0284092206895821
 31
0.0
  0
LINE
  5
117
  8
SICHTBAR__ISO_
 10
321.7276915310580989
 20
296.0284092206895821
 30
0.0
 11
321.7276915310580989
 21
299.5284092206896958
 31
0.0
  0
LINE
  5
118
  8
SICHTBAR__ISO_
 10
331.7276915310579852
 20
299.5284092206896958
 30
0.0
 11
331.7276915310579852
 21
296.0284092206895821
 31
0.0
  0
LINE
  5
119
  8
SICHTBAR__ISO_
 10
254.7276915310580137
 20
257.3284092206894229
 30
0.0
 11
264.7276915310579852
 21
257.3284092206894229
 31
0.0
  0
LINE
  5
11A
  8
SICHTBAR__ISO_
 10
321.7276915310579852
 20
257.3284092206894229
 30
0.0
 11
331.7276915310579852
 21
257.3284092206894229
 31
0.0
  0
LINE
  5
11B
  8
SICHTBAR__ISO_
 10
178.2276915310579
 20
257.3284092206894229
 30
0.0
 11
188.2276915310579
 21
257.3284092206894229
 31
0.0
  0
LINE
  5
11C
  8
SICHTBAR__ISO_
 10
331.7276915310579852
 20
253.8284092206893945
 30
0.0
 11
321.7276915310579852
 21
253.8284092206893945
 31
0.0
  0
LINE
  5
11D
  8
SICHTBAR__ISO_
 10
264.7276915310579852
 20
253.8284092206893945
 30
0.0
 11
254.7276915310580137
 21
253.8284092206893945
 31
0.0
  0
LINE
  5
11E
  8
SICHTBAR__ISO_
 10
188.2276915310579
 20
253.8284092206893945
 30
0.0
 11
178.2276915310579
 21
253.8284092206893945
 31
0.0
  0
LINE
  5
11F
  8
SICHTBAR__ISO_
 10
178.2276915310579
 20
253.8284092206893945
 30
0.0
 11
178.2276915310579
 21
257.3284092206894229
 31
0.0
  0
LINE
  5
120
  8
SICHTBAR__ISO_
 10
188.2276915310579
 20
257.3284092206894229
 30
0.0
 11
188.2276915310579
 21
253.8284092206893945
 31
0.0
  0
LINE
  5
121
  8
SICHTBAR__ISO_
 10
254.7276915310580137
 20
253.8284092206893945
 30
0.0
 11
254.7276915310580137
 21
257.3284092206894229
 31
0.0
  0
LINE
  5
122
  8
SICHTBAR__ISO_
 10
264.7276915310579852
 20
257.3284092206894229
 30
0.0
 11
264.7276915310579852
 21
253.8284092206893945
 31
0.0
  0
LINE
  5
123
  8
SICHTBAR__ISO_
 10
321.7276915310579852
 20
253.8284092206893945
 30
0.0
 11
321.7276915310579852
 21
257.3284092206894229
 31
0.0
  0
LINE
  5
124
  8
SICHTBAR__ISO_
 10
331.7276915310579852
 20
257.3284092206894229
 30
0.0
 11
331.7276915310579852
 21
253.8284092206893945
 31
0.0
  0
LINE
  5
125
  8
SICHTBAR__ISO_
 10
254.7276915310580137
 20
215.1284092206894059
 30
0.0
 11
264.7276915310579852
 21
215.1284092206894059
 31
0.0
  0
LINE
  5
126
  8
SICHTBAR__ISO_
 10
321.7276915310579852
 20
215.1284092206894059
 30
0.0
 11
331.7276915310579852
 21
215.1284092206894059
 31
0.0
  0
LINE
  5
127
  8
SICHTBAR__ISO_
 10
182.2276915310579
 20
215.1284092206894059
 30
0.0
 11
192.2276915310579
 21
215.1284092206894059
 31
0.0
  0
LINE
  5
128
  8
SICHTBAR__ISO_
 10
331.7276915310579852
 20
211.6284092206894059
 30
0.0
 11
321.7276915310579852
 21
211.6284092206894059
 31
0.0
  0
LINE
  5
129
  8
SICHTBAR__ISO_
 10
264.7276915310579852
 20
211.6284092206894059
 30
0.0
 11
254.7276915310580137
 21
211.6284092206894059
 31
0.0
  0
LINE
  5
12A
  8
SICHTBAR__ISO_
 10
192.2276915310579
 20
211.6284092206894059
 30
0.0
 11
182.2276915310579
 21
211.6284092206894059
 31
0.0
  0
LINE
  5
12B
  8
SICHTBAR__ISO_
 10
182.2276915310579
 20
211.6284092206894059
 30
0.0
 11
182.2276915310579
 21
215.1284092206894059
 31
0.0
  0
LINE
  5
12C
  8
SICHTBAR__ISO_
 10
192.2276915310579
 20
215.1284092206894059
 30
0.0
 11
192.2276915310579
 21
211.6284092206894059
 31
0.0
  0
LINE
  5
12D
  8
SICHTBAR__ISO_
 10
254.7276915310580137
 20
211.6284092206894059
 30
0.0
 11
254.7276915310580137
 21
215.1284092206894059
 31
0.0
  0
LINE
  5
12E
  8
SICHTBAR__ISO_
 10
264.7276915310579852
 20
215.1284092206894059
 30
0.0
 11
264.7276915310579852
 21
211.6284092206894059
 31
0.0
  0
LINE
  5
12F
  8
SICHTBAR__ISO_
 10
321.7276915310579852
 20
211.6284092206894059
 30
0.0
 11
321.7276915310579852
 21
215.1284092206894059
 31
0.0
  0
LINE
  5
130
  8
SICHTBAR__ISO_
 10
331.7276915310579852
 20
215.1284092206894059
 30
0.0
 11
331.7276915310579852
 21
211.6284092206894059
 31
0.0
  0
LINE
  5
131
  8
SICHTBAR__ISO_
 10
254.7276915310580137
 20
172.9284092206895025
 30
0.0
 11
264.7276915310579852
 21
172.9284092206895025
 31
0.0
  0
LINE
  5
132
  8
SICHTBAR__ISO_
 10
321.7276915310579852
 20
172.9284092206895025
 30
0.0
 11
331.7276915310579852
 21
172.9284092206895025
 31
0.0
  0
LINE
  5
133
  8
SICHTBAR__ISO_
 10
184.2276915310580137
 20
172.9284092206895025
 30
0.0
 11
194.2276915310580137
 21
172.9284092206895025
 31
0.0
  0
LINE
  5
134
  8
SICHTBAR__ISO_
 10
331.7276915310579852
 20
169.4284092206895025
 30
0.0
 11
321.7276915310579852
 21
169.4284092206895025
 31
0.0
  0
LINE
  5
135
  8
SICHTBAR__ISO_
 10
264.7276915310579852
 20
169.4284092206895025
 30
0.0
 11
254.7276915310580137
 21
169.4284092206895025
 31
0.0
  0
LINE
  5
136
  8
SICHTBAR__ISO_
 10
194.2276915310580137
 20
169.4284092206895025
 30
0.0
 11
184.2276915310580137
 21
169.4284092206895025
 31
0.0
  0
LINE
  5
137
  8
SICHTBAR__ISO_
 10
184.2276915310580137
 20
169.4284092206895025
 30
0.0
 11
184.2276915310580137
 21
172.9284092206895025
 31
0.0
  0
LINE
  5
138
  8
SICHTBAR__ISO_
 10
194.2276915310580137
 20
172.9284092206895025
 30
0.0
 11
194.2276915310580137
 21
169.4284092206895025
 31
0.0
  0
LINE
  5
139
  8
SICHTBAR__ISO_
 10
254.7276915310580137
 20
169.4284092206895025
 30
0.0
 11
254.7276915310580137
 21
172.9284092206895025
 31
0.0
  0
LINE
  5
13A
  8
SICHTBAR__ISO_
 10
264.7276915310579852
 20
172.9284092206895025
 30
0.0
 11
264.7276915310579852
 21
169.4284092206895025
 31
0.0
  0
LINE
  5
13B
  8
SICHTBAR__ISO_
 10
321.7276915310579852
 20
169.4284092206895025
 30
0.0
 11
321.7276915310579852
 21
172.9284092206895025
 31
0.0
  0
LINE
  5
13C
  8
SICHTBAR__ISO_
 10
331.7276915310579852
 20
172.9284092206895025
 30
0.0
 11
331.7276915310579852
 21
169.4284092206895025
 31
0.0
  0
LINE
  5
13D
  8
SICHTBAR__ISO_
 10
254.7276915310580137
 20
130.7284092206897128
 30
0.0
 11
264.7276915310579852
 21
130.7284092206897128
 31
0.0
  0
LINE
  5
13E
  8
SICHTBAR__ISO_
 10
321.7276915310580989
 20
130.7284092206897128
 30
0.0
 11
331.7276915310579852
 21
130.7284092206897128
 31
0.0
  0
LINE
  5
13F
  8
SICHTBAR__ISO_
 10
163.2276915310580137
 20
130.7284092206897128
 30
0.0
 11
173.2276915310580137
 21
130.7284092206897128
 31
0.0
  0
LINE
  5
140
  8
SICHTBAR__ISO_
 10
331.7276915310579852
 20
127.2284092206895991
 30
0.0
 11
321.7276915310580989
 21
127.2284092206895991
 31
0.0
  0
LINE
  5
141
  8
SICHTBAR__ISO_
 10
264.7276915310579852
 20
127.2284092206895991
 30
0.0
 11
254.7276915310580137
 21
127.2284092206895991
 31
0.0
  0
LINE
  5
142
  8
SICHTBAR__ISO_
 10
173.2276915310580137
 20
127.2284092206895991
 30
0.0
 11
163.2276915310580137
 21
127.2284092206895991
 31
0.0
  0
LINE
  5
143
  8
SICHTBAR__ISO_
 10
163.2276915310580137
 20
127.2284092206895991
 30
0.0
 11
163.2276915310580137
 21
130.7284092206897128
 31
0.0
  0
LINE
  5
144
  8
SICHTBAR__ISO_
 10
173.2276915310580137
 20
130.7284092206897128
 30
0.0
 11
173.2276915310580137
 21
127.2284092206895991
 31
0.0
  0
LINE
  5
145
  8
SICHTBAR__ISO_
 10
254.7276915310580137
 20
127.2284092206895991
 30
0.0
 11
254.7276915310580137
 21
130.7284092206897128
 31
0.0
  0
LINE
  5
146
  8
SICHTBAR__ISO_
 10
264.7276915310579852
 20
130.7284092206897128
 30
0.0
 11
264.7276915310579852
 21
127.2284092206895991
 31
0.0
  0
LINE
  5
147
  8
SICHTBAR__ISO_
 10
321.7276915310580989
 20
127.2284092206895991
 30
0.0
 11
321.7276915310580989
 21
130.7284092206897128
 31
0.0
  0
LINE
  5
148
  8
SICHTBAR__ISO_
 10
331.7276915310579852
 20
130.7284092206897128
 30
0.0
 11
331.7276915310579852
 21
127.2284092206895991
 31
0.0
  0
LINE
  5
149
  8
SICHTBAR__ISO_
 10
125.7276915310579994
 20
308.5284092206895821
 30
0.0
 11
145.7276915310580137
 21
328.5284092206896958
 31
0.0
  0
LINE
  5
14A
  8
SICHTBAR__ISO_
 10
125.7276915310579994
 20
308.5284092206895821
 30
0.0
 11
125.7276915310579994
 21
98.5284092206896247
 31
0.0
  0
LINE
  5
14B
  8
SICHTBAR__ISO_
 10
125.7276915310579994
 20
98.5284092206896247
 30
0.0
 11
355.7276915310579852
 21
98.5284092206896247
 31
0.0
  0
LINE
  5
14C
  8
SICHTBAR__ISO_
 10
355.7276915310579852
 20
98.5284092206896247
 30
0.0
 11
355.7276915310579852
 21
328.5284092206896958
 31
0.0
  0
LINE
  5
14D
  8
SICHTBAR__ISO_
 10
355.7276915310579852
 20
328.5284092206896958
 30
0.0
 11
145.7276915310580137
 21
328.5284092206896958
 31
0.0
  0
ENDSEC
  0
EOF
